# xmcd
# 
# Track frame offsets:
#     150
#     34795
#     74980
#     108713
#     146460
#     169661
#     183229
#     211605
#     231012
#     270565
#     275329
#     307800
# 
# Disc length: 4511
# 
# Revision: 8
# Processed by: cddbd v1.5.2PL0 Copyright (c) Steve Scherf et al.
# Submitted via: fre:ac v1.0.31
# 
DISCID=a8119d0c
DTITLE=Masters of Persian Music - Without You
DYEAR=2002
DGENRE=Iranian
TTITLE0=Daramad (Instrumental)
TTITLE1=Saz za Avaz Bee Hamegaan (Mowlavi)
TTITLE2=Saz va Avaz Nahoft
TTITLE3=Tasnif Ba Man Sanama (Mowlavi)
TTITLE4=Zarbi
TTITLE5=Chahar Mezrab
TTITLE6=Saz va Avaz Rah-e Mey Khaneh O Masjed Kodamast? (Attar)
TTITLE7=Chandan keh Goftam (Hafez)
TTITLE8=Zarbi Bayat-e Kord and Tasnif Del-e Divaneh (Baba Taher)
TTITLE9=Foroud
TTITLE10=Avaz Masnavi Chon to Janan-e Mani (Attar)
TTITLE11=Tasnif Bee Hamegaan (Mowlavi)
EXTD=Mohammad Reza Shajarian, Hossein Alizadeh, \nKayhan Kalhor, Homayoun Shajarian
EXTT0=
EXTT1=
EXTT2=
EXTT3=
EXTT4=
EXTT5=
EXTT6=
EXTT7=
EXTT8=
EXTT9=
EXTT10=
EXTT11=
PLAYORDER=
